<mxfile host="app.diagrams.net" modified="2023-09-03T13:05:09.684Z" agent="Mozilla/5.0 (X11; Linux x86_64; rv:109.0) Gecko/20100101 Firefox/117.0" version="21.7.2" etag="5X__hh-2qfcZPxockf_2" type="github">
  <diagram name="Page-1" id="g4V1IehEr0OkBM7ofbtv">
    <mxGraphModel>
      <root>
        <mxCell id="0" />
        <mxCell id="1" parent="0" />
      </root>
    </mxGraphModel>
  </diagram>
</mxfile>
